<svg width="14" height="20" viewBox="0 0 14 20" fill="none" xmlns="http://www.w3.org/2000/svg">
<path d="M14 7C14 3.1 10.9 0 7 0C3.1 0 0 3.1 0 7C0 9 0.8 10.7 2.1 12L1 20L7 17.3L13 20L11.9 12C13.2 10.7 14 9 14 7ZM11.2 17.5L7 15.6L2.8 17.5L3.5 13C4.5 13.6 5.7 14 7 14C8.3 14 9.5 13.7 10.5 13L11.2 17.5ZM10.3 11.4C9.4 12.1 8.2 12.5 7 12.5C5.8 12.5 4.6 12.1 3.7 11.4C3.2 11 2.7 10.5 2.4 10C1.9 9.2 1.5 8.1 1.5 7C1.5 4 4 1.5 7 1.5C10 1.5 12.5 4 12.5 7C12.5 8.1 12.2 9.1 11.6 10C11.3 10.5 10.8 11 10.3 11.4Z" fill="#253658"/>
</svg>
